<svg xmlns="http://www.w3.org/2000/svg" viewBox="0 0 400 300" width="400" height="300">
  <rect width="400" height="300" fill="#fff9c4"/>
  <rect y="230" width="400" height="70" fill="#a5d6a7" rx="10"/>
  <circle cx="100" cy="200" r="35" fill="#8d6e63"/>
  <circle cx="100" cy="175" r="25" fill="#8d6e63"/>
  <circle cx="85" cy="165" r="10" fill="#8d6e63"/>
  <circle cx="115" cy="165" r="10" fill="#8d6e63"/>
  <circle cx="92" cy="172" r="3" fill="#333"/>
  <circle cx="108" cy="172" r="3" fill="#333"/>
  <ellipse cx="100" cy="180" rx="6" ry="4" fill="#5d4037"/>
  <circle cx="250" cy="210" r="25" fill="#ff8a65"/>
  <circle cx="250" cy="190" r="18" fill="#ff8a65"/>
  <polygon points="237,180 230,165 242,178" fill="#ff8a65"/>
  <polygon points="263,180 270,165 258,178" fill="#ff8a65"/>
  <circle cx="244" cy="187" r="2.5" fill="#333"/>
  <circle cx="256" cy="187" r="2.5" fill="#333"/>
  <path d="M275,210 Q290,200 295,220" fill="#ff8a65" stroke="none"/>
  <circle cx="340" cy="220" r="20" fill="#90caf9"/>
  <circle cx="340" cy="205" r="14" fill="#90caf9"/>
  <polygon points="332,202 340,192 348,202" fill="#64b5f6"/>
  <circle cx="335" cy="203" r="2" fill="#333"/>
  <circle cx="345" cy="203" r="2" fill="#333"/>
  <ellipse cx="340" cy="208" rx="3" ry="2" fill="#ffa726"/>
  <circle cx="60" cy="60" r="20" fill="#fdd835"/>
  <path d="M180 250 Q200 240 220 250" fill="none" stroke="#4caf50" stroke-width="2"/>
</svg>
