<svg xmlns="http://www.w3.org/2000/svg" viewBox="0 0 400 300" width="400" height="300">
  <rect width="400" height="300" fill="#e3f2fd"/>
  <rect y="240" width="400" height="60" fill="#78909c"/>
  <rect x="30" y="120" width="60" height="120" fill="#42a5f5" rx="5"/>
  <rect x="40" y="130" width="15" height="15" fill="#bbdefb"/>
  <rect x="65" y="130" width="15" height="15" fill="#bbdefb"/>
  <rect x="40" y="155" width="15" height="15" fill="#bbdefb"/>
  <rect x="65" y="155" width="15" height="15" fill="#bbdefb"/>
  <rect x="120" y="80" width="70" height="160" fill="#ef5350" rx="5"/>
  <rect x="130" y="90" width="15" height="15" fill="#ffcdd2"/>
  <rect x="155" y="90" width="15" height="15" fill="#ffcdd2"/>
  <rect x="130" y="115" width="15" height="15" fill="#ffcdd2"/>
  <rect x="155" y="115" width="15" height="15" fill="#ffcdd2"/>
  <rect x="130" y="140" width="15" height="15" fill="#ffcdd2"/>
  <rect x="220" y="150" width="50" height="90" fill="#66bb6a" rx="5"/>
  <rect x="230" y="160" width="12" height="12" fill="#c8e6c9"/>
  <rect x="248" y="160" width="12" height="12" fill="#c8e6c9"/>
  <rect x="300" y="100" width="80" height="140" fill="#ffa726" rx="5"/>
  <rect x="310" y="110" width="15" height="15" fill="#ffe0b2"/>
  <rect x="340" y="110" width="15" height="15" fill="#ffe0b2"/>
  <rect x="310" y="135" width="15" height="15" fill="#ffe0b2"/>
  <rect x="340" y="135" width="15" height="15" fill="#ffe0b2"/>
  <polygon points="155,80 120,80 190,50" fill="#c62828"/>
  <circle cx="350" cy="40" r="25" fill="#fdd835"/>
  <rect x="150" y="255" width="100" height="5" fill="#fdd835" rx="2"/>
</svg>
