<svg xmlns="http://www.w3.org/2000/svg" viewBox="0 0 400 300" width="400" height="300">
  <rect width="400" height="300" fill="#f3e5f5"/>
  <rect y="220" width="400" height="80" fill="#81c784" rx="15"/>
  <circle cx="80" cy="180" r="20" fill="#e91e63"/>
  <circle cx="80" cy="180" r="10" fill="#fdd835"/>
  <line x1="80" y1="200" x2="80" y2="250" stroke="#4caf50" stroke-width="4"/>
  <circle cx="200" cy="160" r="25" fill="#9c27b0"/>
  <circle cx="200" cy="160" r="12" fill="#fdd835"/>
  <line x1="200" y1="185" x2="200" y2="260" stroke="#4caf50" stroke-width="4"/>
  <circle cx="320" cy="175" r="18" fill="#2196f3"/>
  <circle cx="320" cy="175" r="8" fill="#fdd835"/>
  <line x1="320" y1="193" x2="320" y2="245" stroke="#4caf50" stroke-width="4"/>
  <circle cx="140" cy="100" r="12" fill="#ff9800" opacity="0.8"/>
  <circle cx="260" cy="90" r="10" fill="#e91e63" opacity="0.6"/>
  <circle cx="350" cy="110" r="8" fill="#4caf50" opacity="0.7"/>
  <path d="M50 50 L55 40 L60 50 L55 55 Z" fill="#fdd835" opacity="0.8"/>
  <path d="M300 40 L305 30 L310 40 L305 45 Z" fill="#fdd835" opacity="0.8"/>
  <path d="M180 60 L185 50 L190 60 L185 65 Z" fill="#fdd835" opacity="0.6"/>
  <ellipse cx="50" cy="240" rx="20" ry="8" fill="#66bb6a"/>
  <ellipse cx="350" cy="245" rx="25" ry="10" fill="#66bb6a"/>
</svg>
