<svg xmlns="http://www.w3.org/2000/svg" viewBox="0 0 400 300" width="400" height="300">
  <rect width="400" height="300" fill="#bbdefb"/>
  <rect y="150" width="400" height="150" fill="#1565c0" rx="10"/>
  <path d="M0 160 Q50 140 100 160 Q150 180 200 160 Q250 140 300 160 Q350 180 400 160 V300 H0 Z" fill="#1976d2"/>
  <circle cx="200" cy="220" r="30" fill="#ffa726"/>
  <circle cx="185" cy="215" r="4" fill="#333"/>
  <circle cx="215" cy="215" r="4" fill="#333"/>
  <path d="M190 230 Q200 238 210 230" fill="none" stroke="#333" stroke-width="2"/>
  <polygon points="230,220 260,200 260,240" fill="#ffa726" opacity="0.8"/>
  <circle cx="100" cy="240" r="15" fill="#e91e63" opacity="0.6"/>
  <circle cx="320" cy="200" r="12" fill="#4caf50" opacity="0.5"/>
  <path d="M310 195 L330 195 M320 185 L320 205" stroke="#388e3c" stroke-width="2"/>
  <circle cx="50" cy="50" r="25" fill="#fdd835"/>
  <circle cx="350" cy="60" r="15" fill="white" opacity="0.7"/>
  <circle cx="370" cy="55" r="15" fill="white" opacity="0.7"/>
  <circle cx="320" cy="50" r="12" fill="white" opacity="0.7"/>
</svg>
