<svg xmlns="http://www.w3.org/2000/svg" viewBox="0 0 400 300" width="400" height="300">
  <rect width="400" height="300" fill="#fff3e0"/>
  <rect x="40" y="30" width="320" height="240" fill="#ffe0b2" rx="10" stroke="#8d6e63" stroke-width="3"/>
  <path d="M80 100 Q120 80 160 100 Q200 120 240 100 Q280 80 320 100" fill="none" stroke="#8d6e63" stroke-width="2" stroke-dasharray="8,4"/>
  <path d="M320 100 Q330 140 300 170 Q280 190 280 220" fill="none" stroke="#8d6e63" stroke-width="2" stroke-dasharray="8,4"/>
  <circle cx="80" cy="100" r="8" fill="#f44336"/>
  <text x="73" y="88" font-size="12" fill="#c62828" font-weight="bold">S</text>
  <polygon points="280,220 270,200 290,200" fill="#fdd835"/>
  <polygon points="280,202 272,208 288,208" fill="#fdd835"/>
  <line x1="280" y1="208" x2="280" y2="225" stroke="#8d6e63" stroke-width="2"/>
  <ellipse cx="160" cy="160" rx="25" ry="15" fill="#64b5f6" opacity="0.5"/>
  <polygon points="200,50 210,40 220,50 210,55" fill="#66bb6a"/>
  <polygon points="200,60 210,50 220,60 210,65" fill="#66bb6a"/>
  <rect x="100" y="180" width="30" height="25" fill="#795548" rx="3"/>
  <rect x="100" y="180" width="30" height="5" fill="#5d4037" rx="2"/>
  <circle cx="340" cy="60" r="12" fill="none" stroke="#8d6e63" stroke-width="2"/>
  <line x1="340" y1="48" x2="340" y2="52" stroke="#8d6e63" stroke-width="2"/>
  <line x1="340" y1="68" x2="340" y2="72" stroke="#8d6e63" stroke-width="2"/>
  <line x1="328" y1="60" x2="332" y2="60" stroke="#8d6e63" stroke-width="2"/>
  <line x1="348" y1="60" x2="352" y2="60" stroke="#8d6e63" stroke-width="2"/>
</svg>
